<?xml version="1.0" standalone="no"?><!DOCTYPE svg PUBLIC "-//W3C//DTD SVG 1.1//EN" "http://www.w3.org/Graphics/SVG/1.1/DTD/svg11.dtd"><svg t="1661243467995" class="icon" viewBox="0 0 1152 1024" version="1.1" xmlns="http://www.w3.org/2000/svg" p-id="2346" xmlns:xlink="http://www.w3.org/1999/xlink" width="225" height="200"><defs><style type="text/css">@font-face { font-family: "feedback-iconfont"; src: url("//at.alicdn.com/t/font_1031158_u69w8yhxdu.woff2?t=1630033759944") format("woff2"), url("//at.alicdn.com/t/font_1031158_u69w8yhxdu.woff?t=1630033759944") format("woff"), url("//at.alicdn.com/t/font_1031158_u69w8yhxdu.ttf?t=1630033759944") format("truetype"); }
</style></defs><path d="M1056 896H96c-53.02 0-96-42.98-96-96V224c0-53.02 42.98-96 96-96h960c53.02 0 96 42.98 96 96v576c0 53.02-42.98 96-96 96zM256 360v-80c0-13.254-10.746-24-24-24H152c-13.254 0-24 10.746-24 24v80c0 13.254 10.746 24 24 24h80c13.254 0 24-10.746 24-24z m192 0v-80c0-13.254-10.746-24-24-24h-80c-13.254 0-24 10.746-24 24v80c0 13.254 10.746 24 24 24h80c13.254 0 24-10.746 24-24z m192 0v-80c0-13.254-10.746-24-24-24h-80c-13.254 0-24 10.746-24 24v80c0 13.254 10.746 24 24 24h80c13.254 0 24-10.746 24-24z m192 0v-80c0-13.254-10.746-24-24-24h-80c-13.254 0-24 10.746-24 24v80c0 13.254 10.746 24 24 24h80c13.254 0 24-10.746 24-24z m192 0v-80c0-13.254-10.746-24-24-24h-80c-13.254 0-24 10.746-24 24v80c0 13.254 10.746 24 24 24h80c13.254 0 24-10.746 24-24z m-672 192v-80c0-13.254-10.746-24-24-24h-80c-13.254 0-24 10.746-24 24v80c0 13.254 10.746 24 24 24h80c13.254 0 24-10.746 24-24z m192 0v-80c0-13.254-10.746-24-24-24h-80c-13.254 0-24 10.746-24 24v80c0 13.254 10.746 24 24 24h80c13.254 0 24-10.746 24-24z m192 0v-80c0-13.254-10.746-24-24-24h-80c-13.254 0-24 10.746-24 24v80c0 13.254 10.746 24 24 24h80c13.254 0 24-10.746 24-24z m192 0v-80c0-13.254-10.746-24-24-24h-80c-13.254 0-24 10.746-24 24v80c0 13.254 10.746 24 24 24h80c13.254 0 24-10.746 24-24z m-672 192v-80c0-13.254-10.746-24-24-24H152c-13.254 0-24 10.746-24 24v80c0 13.254 10.746 24 24 24h80c13.254 0 24-10.746 24-24z m576 0v-80c0-13.254-10.746-24-24-24H344c-13.254 0-24 10.746-24 24v80c0 13.254 10.746 24 24 24h464c13.254 0 24-10.746 24-24z m192 0v-80c0-13.254-10.746-24-24-24h-80c-13.254 0-24 10.746-24 24v80c0 13.254 10.746 24 24 24h80c13.254 0 24-10.746 24-24z" p-id="2347"></path></svg>